<svg xmlns="http://www.w3.org/2000/svg" fill="none" viewBox="0 0 229 75" height="75" width="229">
<path fill="black" d="M24.3333 56.2501C23.5417 56.2501 23.2222 55.7639 23.1389 55.1251H23.0694C22.7778 55.9723 22.0417 56.4167 21.0694 56.4167C19.6111 56.4167 18.75 55.6112 18.75 54.3195C18.75 53.0278 19.6944 52.2917 21.7083 52.2917H23.0833V51.6112C23.0833 50.6251 22.5417 50.0973 21.4444 50.0973C20.6111 50.0973 20.0556 50.5001 19.6806 51.1251L19.0417 50.5139C19.4167 49.7778 20.25 49.1528 21.5 49.1528C23.1667 49.1528 24.1528 50.0278 24.1528 51.4862V55.3056H24.9444V56.2501H24.3333ZM23.0694 54.2362V53.0973H21.6389C20.4167 53.0973 19.8611 53.4723 19.8611 54.1389V54.4167C19.8611 55.0973 20.4028 55.4862 21.2361 55.4862C22.2917 55.4862 23.0694 54.9306 23.0694 54.2223V54.2362Z"></path>
<path fill="black" d="M26.5416 56.2501V49.3195H27.6111V50.4445H27.6666C28 49.6667 28.5972 49.1528 29.625 49.1528C31.0555 49.1528 31.9444 50.1251 31.9444 51.8056V56.2501H30.875V51.9862C30.875 50.7501 30.3333 50.1251 29.3055 50.1251C28.4444 50.1251 27.6111 50.5556 27.6111 51.4445V56.2501H26.5416Z"></path>
<path fill="black" d="M36.5972 56.25V55.3055H37.9166V47.8055H36.5972V46.8611H40.3611V47.8055H39.0416V55.3055H40.3611V56.25H36.5972Z"></path>
<path fill="black" d="M42.4861 46.875H46.3472C47.8889 46.875 48.8472 47.8333 48.8472 49.2917C48.8472 50.75 47.9444 51.1806 47.3333 51.2778V51.3611C48 51.4028 49.1666 51.9722 49.1666 53.5417C49.1666 55.1111 48.1389 56.25 46.75 56.25H42.4861V46.875ZM43.6111 50.9306H46.2083C47.0972 50.9306 47.6389 50.4583 47.6389 49.625V49.1667C47.6389 48.3333 47.0972 47.8611 46.2083 47.8611H43.6111V50.9167V50.9306ZM43.6111 55.25H46.3889C47.3611 55.25 47.9444 54.7361 47.9444 53.8056V53.3472C47.9444 52.4028 47.3472 51.9028 46.3889 51.9028H43.6111V55.2639V55.25Z"></path>
<path fill="black" d="M51.3195 46.875H52.8195L55.5001 51.9306H55.5695L58.264 46.875H59.7084V56.25H58.6112V48.3472H58.5417L57.7501 49.9167L55.5001 54L53.2501 49.9167L52.4584 48.3472H52.389V56.25H51.2917V46.875H51.3195Z"></path>
<path fill="black" d="M64.5277 51.6111C64.5277 48.4862 65.9444 46.7084 68.3055 46.7084C69.861 46.7084 70.9444 47.4584 71.5277 48.7639L70.611 49.3195C70.236 48.3473 69.4583 47.7223 68.3055 47.7223C66.6944 47.7223 65.736 49 65.736 50.9167V52.3195C65.736 54.2361 66.6944 55.4028 68.3055 55.4028C69.4999 55.4028 70.3194 54.7361 70.6944 53.7084L71.5972 54.2778C70.9999 55.5973 69.861 56.4167 68.3055 56.4167C65.9444 56.4167 64.5277 54.75 64.5277 51.625V51.6111Z"></path>
<path fill="black" d="M72.7917 52.7778C72.7917 50.5695 74.0695 49.1528 75.9167 49.1528C77.7639 49.1528 79.0417 50.5834 79.0417 52.7778C79.0417 54.9723 77.7639 56.4028 75.9167 56.4028C74.0695 56.4028 72.7917 54.9723 72.7917 52.7778ZM77.8889 53.2778V52.2778C77.8889 50.8195 77.0695 50.0973 75.9167 50.0973C74.7639 50.0973 73.9445 50.8056 73.9445 52.2778V53.2778C73.9445 54.7362 74.7639 55.4584 75.9167 55.4584C77.0695 55.4584 77.8889 54.7501 77.8889 53.2778Z"></path>
<path fill="black" d="M80.8889 56.2501V49.3195H81.9583V50.4445H82.0139C82.3194 49.7362 82.8055 49.1528 83.875 49.1528C84.7916 49.1528 85.625 49.5695 86 50.5695H86.0277C86.2777 49.8195 86.9583 49.1528 88.1389 49.1528C89.5555 49.1528 90.3889 50.1251 90.3889 51.8056V56.2501H89.3194V51.9862C89.3194 50.7639 88.8472 50.1251 87.8055 50.1251C86.9583 50.1251 86.1805 50.5556 86.1805 51.4445V56.2501H85.1111V51.9862C85.1111 50.7501 84.6389 50.1251 83.625 50.1251C82.7777 50.1251 81.9722 50.5556 81.9722 51.4445V56.2501H80.9027H80.8889Z"></path>
<path fill="black" d="M92.6805 49.3195H93.75V50.4445H93.8055C94.1666 49.5695 94.875 49.1528 95.8333 49.1528C97.5694 49.1528 98.6528 50.5695 98.6528 52.7778C98.6528 54.9862 97.5694 56.4028 95.8333 56.4028C94.875 56.4028 94.2222 55.9723 93.8055 55.1112H93.75V58.9306H92.6805V49.3195ZM97.5 53.3751V52.1945C97.5 50.9584 96.75 50.1251 95.5416 50.1251C94.5555 50.1251 93.75 50.6945 93.75 51.4584V54.0417C93.75 54.9445 94.5555 55.4584 95.5416 55.4584C96.75 55.4584 97.5 54.6251 97.5 53.3889V53.3751Z"></path>
<path fill="black" d="M105.569 56.2501C104.778 56.2501 104.458 55.7639 104.375 55.1251H104.306C104.014 55.9723 103.278 56.4167 102.306 56.4167C100.847 56.4167 99.9861 55.6112 99.9861 54.3195C99.9861 53.0278 100.931 52.2917 102.944 52.2917H104.319V51.6112C104.319 50.6251 103.778 50.0973 102.681 50.0973C101.847 50.0973 101.292 50.5001 100.917 51.1251L100.278 50.5139C100.653 49.7778 101.486 49.1528 102.736 49.1528C104.403 49.1528 105.389 50.0278 105.389 51.4862V55.3056H106.181V56.2501H105.569ZM104.319 54.2362V53.0973H102.889C101.667 53.0973 101.111 53.4723 101.111 54.1389V54.4167C101.111 55.0973 101.653 55.4862 102.486 55.4862C103.542 55.4862 104.319 54.9306 104.319 54.2223V54.2362Z"></path>
<path fill="black" d="M107.778 56.2501V49.3195H108.847V50.4445H108.903C109.236 49.6667 109.833 49.1528 110.861 49.1528C112.292 49.1528 113.18 50.1251 113.18 51.8056V56.2501H112.111V51.9862C112.111 50.7501 111.569 50.1251 110.542 50.1251C109.68 50.1251 108.847 50.5556 108.847 51.4445V56.2501H107.778Z"></path>
<path fill="black" d="M119.639 49.3195H120.694L117.597 57.8611C117.292 58.6945 117 58.9306 115.986 58.9306H115.431V57.9861H116.514L117.042 56.5139L114.444 49.3195H115.514L117.181 54.0278L117.5 55.1528H117.569L117.944 54.0278L119.625 49.3195H119.639Z"></path>
<path fill="black" d="M117.917 26.0556V22.7639H133.542V18.75H118.208L113.903 22.0694V26.7639L118.208 30.0833H130.708V33.4861H114.694V37.5H130.431L134.722 34.1806V29.375L130.431 26.0556H117.917Z"></path>
<path fill="black" d="M53.0278 18.75L42.1945 37.5H46.8333L54.7083 23.8889L62.5556 37.5H67.1945L56.375 18.75H53.0278Z"></path>
<path fill="black" d="M87.1528 18.75H66.3195V22.7639H74.7361V37.5H78.75V22.7639H87.1528V18.75Z"></path>
<path fill="black" d="M159.556 18.75H138.736V22.7639H147.139V37.5H151.153V22.7639H159.556V18.75Z"></path>
<path fill="black" d="M18.75 18.75V37.5H35.2778L39.5833 34.1806V22.0694L35.2778 18.75H18.75ZM35.5556 33.4861H22.7639V22.7778H35.5556V33.4861Z"></path>
<path fill="black" d="M185.944 18.75L191.361 28.125L185.944 37.5H190.583L196.014 28.125L190.583 18.75H185.944Z"></path>
<path fill="black" d="M210.042 18.75H205.403L199.986 28.125L205.403 37.5H210.042L204.625 28.125L210.042 18.75Z"></path>
<path fill="black" d="M97.1111 18.75L86.2778 37.5H90.9167L98.7778 23.8889L106.639 37.5H111.278L100.458 18.75H97.1111Z"></path>
<path fill="black" d="M169.514 18.75L158.681 37.5H163.319L171.181 23.8889L179.056 37.5H183.694L172.861 18.75H169.514Z"></path>
</svg>
