<svg xmlns="http://www.w3.org/2000/svg" viewBox="0 0 695 120" class="css-1gtfl7l"><path d="M160.2 19.96h32.4c27.48 0 40.1 13.96 40.1 39.23s-15.14 40.56-40.1 40.56h-32.4V19.96zm15.13 12.63v54.65h16.07c18.72 0 26.15-10.11 26.15-28.06 0-18.75-7.83-26.6-26.95-26.6h-15.27zm64.92 36.7c0-21.14 11.95-33.64 31.47-33.64 18.85 0 28.01 11.44 28.01 28.59 0 2.39 0 5.19-.26 8.38h-45.01c1.06 11.3 6.77 17.02 17.39 17.02 9.96 0 13.41-4.79 15.13-10.77l12.22 3.46c-2.92 11.3-10.75 19.02-27.48 19.02-19.12-.01-31.47-11.18-31.47-32.06zm14.34-6.25h32c-.53-10.77-5.31-16.36-15.27-16.36-9.69.01-15.4 5.19-16.73 16.36zm53.11 6.25c0-21.14 11.95-33.64 31.47-33.64 18.85 0 28.01 11.44 28.01 28.59 0 2.39 0 5.19-.26 8.38h-45.01c1.06 11.3 6.77 17.02 17.39 17.02 9.96 0 13.41-4.79 15.13-10.77l12.22 3.46c-2.92 11.3-10.75 19.02-27.48 19.02-19.12-.01-31.47-11.18-31.47-32.06zm14.34-6.25h32c-.53-10.77-5.31-16.36-15.27-16.36-9.69.01-15.4 5.19-16.73 16.36zm93.6 38.43c-11.42 0-18.72-7.45-21.77-18.35h-.93v36.83h-14.21v-82.7h14.21v16.22h.93c3.32-10.77 10.22-17.82 21.51-17.82 14.74 0 22.97 11.7 22.97 32.98s-8.63 32.84-22.71 32.84zm8.63-32.84c0-13.56-4.78-20.08-15.27-20.08-9.82 0-16.06 6.92-16.06 17.82v4.79c0 10.51 6.37 17.69 15.93 17.69 10.49-.01 15.4-6.79 15.4-20.22zm39.57 31.11h-14.21v-62.5h13.94v16.49h1.2c3.45-11.57 11.42-18.09 21.91-18.09 13.01 0 19.25 8.78 19.25 22.34v41.76h-14.21V61.71c0-7.58-3.32-13.17-11.95-13.17-9.56 0-15.93 6.38-15.93 15.82v35.38zm52.71-31.38c0-20.61 12.35-32.71 31.73-32.71 19.12 0 31.47 12.1 31.47 32.71 0 20.48-11.68 33.11-31.47 33.11-20.05 0-31.73-12.63-31.73-33.11zm14.34-.13c0 12.9 5.31 20.88 17.26 20.88 11.82 0 17.39-7.98 17.39-20.88s-5.84-20.48-17.39-20.48-17.26 7.58-17.26 20.48zm63.73-19.42h-8.76V37.25h8.76V20.36h14.34v16.89h18.32v11.57h-18.32v29.92c0 6.12 2.26 9.31 8.5 9.31 3.19 0 5.97-.66 9.03-1.6l1.73 12.77c-4.65 1.46-7.83 2.26-14.07 2.26-13.67 0-19.52-9.04-19.52-20.74V48.81zm40.1 20.48c0-21.14 11.95-33.64 31.47-33.64 18.85 0 28.01 11.44 28.01 28.59 0 2.39 0 5.19-.26 8.38h-45.01c1.06 11.3 6.77 17.02 17.39 17.02 9.96 0 13.41-4.79 15.13-10.77l12.22 3.46c-2.92 11.3-10.75 19.02-27.48 19.02-19.13-.01-31.47-11.18-31.47-32.06zm14.34-6.25h32c-.53-10.77-5.31-16.36-15.27-16.36-9.7.01-15.41 5.19-16.73 16.36z" class="css-1ovdpap"></path><path fill-rule="evenodd" clip-rule="evenodd" d="M42.35 0c-2.18.01-3.14 0-3.14 0C23.9 22.23 15.31 34.69 0 56.92h36.08c3.07 0 6.44.11 9.91.45l-10.7 14.94L0 120h50.2s.03-.01.05-.01c-.02 0-.05.01-.05.01s69.8-2.14 69.8-63.4C120 2.93 57.73-.06 42.35 0z" class="css-1uzjw4m"></path><path d="M50.2 120s29.15-5.48 29.15-32.64c0-22.25-17.66-28.47-33.36-29.99l-10.7 14.94L0 120h50.2m15.23-14.01c.03-.05.06-.09.09-.13-.03.04-.06.09-.09.13z" fill-rule="evenodd" clip-rule="evenodd" class="css-p6wan8"></path><path d="M35.29 72.31c22.15 0 36.64 10.38 33.71 24.93C66.06 111.79 50.2 120 50.2 120s29.15-5.48 29.15-32.64c0-22.25-17.66-28.47-33.36-29.99l-10.7 14.94zM50.2 120z" class="css-746bdy"></path><path fill-rule="evenodd" clip-rule="evenodd" d="M0 56.92C15.31 34.69 23.9 22.23 39.22 0c0 0 .96.01 3.14 0C57.73-.06 120 2.93 120 56.6c0 61.27-69.8 63.4-69.8 63.4s29.15-5.47 29.15-32.64-26.33-30.44-43.27-30.44H0z" class="css-1uzjw4m"></path></svg>
