<svg width="300" height="70" viewBox="0 0 300 70" fill="none" xmlns="http://www.w3.org/2000/svg">
<g clip-path="url(#clip0_24040_1457)">
<mask id="mask0_24040_1457" style="mask-type:luminance" maskUnits="userSpaceOnUse" x="0" y="0" width="69" height="70">
<path d="M68.7534 35.3597C68.7534 16.3741 53.3625 0.983154 34.3766 0.983154C15.3909 0.983154 0 16.3741 0 35.3597V35.4458C0 54.4315 15.3909 69.8227 34.3766 69.8227C53.3625 69.8227 68.7534 54.4315 68.7534 35.4458V35.3597Z" fill="white"/>
</mask>
<g mask="url(#mask0_24040_1457)">
<path d="M29.9412 31.9639L29.9378 26.2915C29.9378 25.9541 29.8042 25.6299 29.5654 25.3911L24.6611 20.4712L21.2395 24.2509L29.2355 32.2565C29.4962 32.5174 29.9417 32.3322 29.9417 31.9635L29.9412 31.9639Z" fill="url(#paint0_linear_24040_1457)"/>
<path d="M19.1071 45.6407L9.46898 36.0115L6.02448 39.7577L18.7743 52.5113C19.0349 52.7718 19.4799 52.5873 19.4799 52.2183V46.5417C19.4799 46.2036 19.3457 45.8797 19.1071 45.6407Z" fill="url(#paint1_linear_24040_1457)"/>
<path d="M31.9462 1.19238C14.6475 2.38888 0.822642 16.7254 0.171217 34.0743C-0.464594 51.0138 11.1693 65.3458 26.8767 68.8616L5.93594 47.8918C5.63587 47.5913 5.46751 47.1835 5.46849 46.7583L5.48412 39.9839C5.48461 39.7007 5.82667 39.5592 6.02624 39.7596L9.47072 36.0131C9.25458 35.7968 9.25458 35.4454 9.47072 35.2293L12.784 31.9199C13.0002 31.7038 13.35 31.7043 13.5657 31.9199L24.7594 43.1276C25.2353 43.6039 25.5022 44.2498 25.5022 44.9232V56.6171C25.5022 58.3017 26.1708 59.9174 27.3603 61.1085L35.895 69.6541C38.0632 69.5613 40.1766 69.2641 42.2201 68.7844L31.4079 57.9554C30.873 57.4197 30.5725 56.6933 30.5725 55.936V44.6354C30.5725 42.783 29.8376 41.0057 28.529 39.6959L17.1678 28.3206C16.9516 28.1042 16.9516 27.7528 17.1683 27.5365L20.4586 24.2524C20.6748 24.0364 21.0246 24.0369 21.2403 24.2528L24.662 20.4732C24.5981 20.3999 24.5373 20.3198 24.477 20.2368C23.4999 18.9167 22.9062 16.7396 23.5986 14.2846C24.0134 12.7128 24.8747 11.5276 26.4624 10.0873C26.602 9.96074 26.822 9.95437 26.964 10.0775L31.0766 13.645L31.8867 14.349C32.1978 14.6192 32.5697 14.8107 32.9703 14.906L45.7924 17.9576C45.9422 17.9928 46.0799 18.0695 46.1882 18.175L59.3586 31.3302C59.5885 31.5506 59.7192 31.8579 59.7192 32.1775V34.9744C59.7192 35.4044 59.6111 35.8279 59.4042 36.2046L52.8864 48.0946C52.6023 48.6151 51.9665 48.8331 51.4239 48.5963L48.4196 47.2852H37.4395C36.7338 47.2852 36.1627 47.858 36.1627 48.564V53.4656C36.1627 54.1404 36.429 54.7885 36.9036 55.267L48.2761 66.7407C60.2527 61.4023 68.6051 49.3755 68.6051 35.3957C68.6051 15.652 51.948 -0.192712 31.9441 1.19091L31.9462 1.19238Z" fill="black"/>
</g>
<path d="M100.667 51.0547H94.3848V22.6948H83.96V17.1023H111.092V22.6948H100.667V51.0547ZM121.036 51.0547H114.799V26.9571H121.036V51.0547ZM137.382 60.9213C130.462 60.9213 125.728 57.6478 125.728 52.3735H131.874C131.919 54.3738 134.059 55.9653 137.336 55.9653C141.251 55.9653 143.3 53.692 143.3 50.3273V47.1445C141.843 49.3723 139.294 50.691 135.97 50.691C129.415 50.691 124.817 45.6895 124.817 38.4602C124.817 31.1854 129.461 26.1839 135.879 26.1839C139.612 26.1839 142.617 27.8663 144.028 30.5033L144.529 26.9571H149.445V50.282C149.445 56.7383 144.711 60.9213 137.382 60.9213ZM137.199 45.5986C140.796 45.5986 143.3 42.6888 143.3 38.4147C143.3 34.2317 140.796 31.3219 137.199 31.3219C133.649 31.3219 131.145 34.2317 131.145 38.4602C131.145 42.6888 133.649 45.5986 137.199 45.5986ZM165.88 51.7821C158.369 51.7821 153.225 46.5536 153.225 39.0969C153.225 31.2763 158.415 26.1839 165.425 26.1839C172.344 26.1839 177.079 31.0489 177.215 38.9149V40.3699H159.325C159.78 44.0982 162.284 46.6446 165.926 46.6446C168.475 46.6446 170.341 45.4623 171.115 43.3706H177.125C175.804 48.6905 171.662 51.7821 165.88 51.7821ZM159.598 36.2323H170.842C170.159 33.1406 168.248 31.3672 165.425 31.3672C162.603 31.3672 160.418 33.186 159.598 36.2323ZM187.186 51.0547H180.95V26.9571H185.957L186.731 31.7765C188.279 28.4119 191.101 26.6387 195.062 26.6387H196.063V32.6404H195.062C190.1 32.6404 187.186 35.1865 187.186 39.5513V51.0547ZM211.287 51.0547H199.633V19.2274H211.287C220.893 19.2274 227.63 25.6839 227.63 34.9591C227.63 44.4619 220.893 51.0547 211.287 51.0547ZM205.915 24.8198V45.417H211.697C217.251 45.417 221.12 41.1429 221.12 34.9591C221.12 29.0939 217.251 24.8198 211.697 24.8198H205.915ZM239.779 51.6461C234.179 51.6461 230.445 49.0542 230.491 44.4619C230.582 38.7786 236.273 37.5054 240.961 36.9596C244.511 36.5053 247.017 36.2778 247.017 34.4135C247.017 32.413 245.512 31.1398 242.645 31.1398C239.642 31.1398 237.638 32.7313 237.319 35.0956H231.037C231.583 29.8213 236.318 26.1839 242.736 26.1839C249.52 26.1839 253.071 29.7304 253.071 34.8228V45.3258C253.071 46.0079 253.389 46.3716 254.209 46.3716H255.482V51.0547H252.704C250.384 51.0547 248.744 50.1911 248.155 48.554C248.016 48.2812 247.926 48.0084 247.835 47.6903C246.424 50.1455 243.829 51.6461 239.779 51.6461ZM241.144 46.9171C244.374 46.9171 247.017 45.2349 247.017 42.3704V38.8695C246.195 40.279 244.055 40.5971 241.689 40.9154C238.822 41.3247 236.726 41.734 236.726 44.0073C236.726 45.8714 238.185 46.9171 241.144 46.9171ZM272.379 51.0547H269.102C263.596 51.0547 260.59 48.4177 260.59 43.4615V32.1856H256.536V26.9571H260.59V18.7272H266.827V26.9571H272.881V32.1856H266.827V42.8706C266.827 44.7803 267.782 45.826 269.649 45.826H272.379V51.0547ZM284.59 51.6461C278.99 51.6461 275.256 49.0542 275.302 44.4619C275.394 38.7786 281.083 37.5054 285.772 36.9596C289.322 36.5053 291.828 36.2778 291.828 34.4135C291.828 32.413 290.325 31.1398 287.455 31.1398C284.452 31.1398 282.451 32.7313 282.13 35.0956H275.847C276.395 29.8213 281.129 26.1839 287.549 26.1839C294.331 26.1839 297.881 29.7304 297.881 34.8228V45.3258C297.881 46.0079 298.202 46.3716 299.02 46.3716H300.295V51.0547H297.519C295.197 51.0547 293.557 50.1911 292.966 48.554C292.831 48.2812 292.737 48.0084 292.648 47.6903C291.237 50.1455 288.639 51.6461 284.59 51.6461ZM285.955 46.9171C289.187 46.9171 291.828 45.2349 291.828 42.3704V38.8695C291.008 40.279 288.868 40.5971 286.5 40.9154C283.632 41.3247 281.539 41.734 281.539 44.0073C281.539 45.8714 282.996 46.9171 285.955 46.9171Z" fill="black"/>
<path d="M117.725 24.0212C119.723 24.0212 121.342 22.4015 121.342 20.4035C121.342 18.4056 119.723 16.7859 117.725 16.7859C115.727 16.7859 114.107 18.4056 114.107 20.4035C114.107 22.4015 115.727 24.0212 117.725 24.0212Z" fill="black"/>
</g>
<defs>
<linearGradient id="paint0_linear_24040_1457" x1="30.0234" y1="26.4685" x2="24.479" y2="26.386" gradientUnits="userSpaceOnUse">
<stop stop-opacity="0"/>
<stop offset="1"/>
</linearGradient>
<linearGradient id="paint1_linear_24040_1457" x1="19.3638" y1="44.3219" x2="12.4553" y2="44.3219" gradientUnits="userSpaceOnUse">
<stop stop-opacity="0"/>
<stop offset="0.96"/>
</linearGradient>
<clipPath id="clip0_24040_1457">
<rect width="300" height="68.8395" fill="white" transform="translate(0 0.983154)"/>
</clipPath>
</defs>
</svg>
