<svg version="1.1" id="Logo" xmlns:x="ns_extend;" xmlns:i="ns_ai;" xmlns:graph="ns_graphs;" xmlns="http://www.w3.org/2000/svg" xmlns:xlink="http://www.w3.org/1999/xlink" x="0px" y="0px" viewBox="0 0 347.1 78" style="enable-background:new 0 0 347.1 78;" xml:space="preserve">
 <style type="text/css">
  .st0{clip-path:url(#SVGID_2_);}
	.st1{fill-rule:evenodd;clip-rule:evenodd;}
 </style>
 <metadata>
  <sfw xmlns="ns_sfw;">
   <slices>
   </slices>
   <sliceSourceBounds bottomLeftOrigin="true" height="78" width="347.1" x="5378.7" y="-119.8">
   </sliceSourceBounds>
  </sfw>
 </metadata>
 <g>
  <g>
   <defs>
    <path id="SVGID_1_" d="M39,0L39,0c21.5,0,39,17.5,39,39l0,0c0,21.5-17.5,39-39,39l0,0C17.5,78,0,60.5,0,39l0,0
				C0,17.5,17.5,0,39,0z">
    </path>
   </defs>
   <clipPath id="SVGID_2_">
    <use href="#SVGID_1_" style="overflow:visible;">
    </use>
   </clipPath>
   <g class="st0">
    <path d="M77.8,39c0,15.8-9.5,29.5-23.1,35.5l-12.9-13c-0.5-0.5-0.8-1.3-0.8-2v-5.6c0-0.8,0.6-1.4,1.4-1.4h12.5l3.4,1.5
				c0.6,0.3,1.3,0,1.7-0.6l7.4-13.5c0.2-0.4,0.4-0.9,0.4-1.4v-3.2c0-0.4-0.1-0.7-0.4-1L52.4,19.5c-0.1-0.1-0.3-0.2-0.4-0.2
				l-14.5-3.5c-0.5-0.1-0.9-0.3-1.2-0.6l-0.9-0.8l-4.7-4c-0.2-0.1-0.4-0.1-0.6,0c-1.8,1.6-2.8,3-3.2,4.8c-0.8,2.8-0.1,5.2,1,6.7
				c0.1,0.1,0.1,0.2,0.2,0.3l5.6,5.6c0.3,0.3,0.4,0.6,0.4,1l0,6.4c0,0.4-0.5,0.6-0.8,0.3l-9.1-9.1c-0.2-0.2-0.6-0.2-0.9,0l-3.7,3.7
				c-0.2,0.2-0.2,0.6,0,0.9l12.9,12.9c1.5,1.5,2.3,3.5,2.3,5.6v12.8c0,0.9,0.3,1.7,0.9,2.3l12.3,12.3c-2.3,0.5-4.7,0.9-7.2,1
				L31,68.1c-1.3-1.4-2.1-3.2-2.1-5.1V49.8c0-0.8-0.3-1.5-0.8-2L15.4,35.1c-0.2-0.2-0.6-0.2-0.9,0l-3.8,3.8c-0.2,0.2-0.2,0.6,0,0.9
				l10.9,10.9c0.3,0.3,0.4,0.6,0.4,1v6.4c0,0.4-0.5,0.6-0.8,0.3L6.8,43.9c-0.2-0.2-0.6-0.1-0.6,0.3l0,7.7c0,0.5,0.2,0.9,0.5,1.3
				l23.8,23.8c-17.8-4-31-20.2-30.3-39.4C0.9,17.8,16.6,1.6,36.2,0.2C58.9-1.3,77.8,16.6,77.8,39">
    </path>
   </g>
  </g>
  <path class="st1" d="M137.9,26.3c0.8,0.8,1.8,1.2,2.9,1.2c1.1,0,2.1-0.4,2.9-1.2c0.8-0.8,1.2-1.8,1.2-2.9c0-1.2-0.4-2.1-1.2-2.8
		c-0.8-0.8-1.7-1.2-2.9-1.2c-1.1,0-2.1,0.4-2.9,1.2c-0.8,0.7-1.2,1.7-1.2,2.8C136.7,24.4,137.1,25.5,137.9,26.3z">
  </path>
  <path d="M144.2,30.6h-6.8v27.1h6.8V30.6z">
  </path>
  <path class="st1" d="M114.9,57.7h7V26.6h10.9v-6.2H104v6.2h10.9V57.7z">
  </path>
  <path class="st1" d="M149.7,57.7V30.9h5.6l0.5,3.6c0.8-1.3,2-2.4,3.6-3.2c1.6-0.8,3.3-1.3,5.3-1.3c2,0,3.5,0.4,4.9,1.3
		c1.4,0.8,2.5,2,3.2,3.6c0.8-1.4,2-2.6,3.6-3.5c1.6-0.9,3.5-1.4,5.6-1.4c2.8,0,5,0.9,6.7,2.7c1.7,1.8,2.5,4.2,2.5,7.2v17.8h-6.9
		V40.2c0-1.3-0.4-2.4-1.2-3.1c-0.7-0.8-1.8-1.2-3.1-1.2c-1.8,0-3.3,0.5-4.4,1.6c-1.1,1-1.7,2.4-1.7,4v16.3h-6.9V40.2
		c0-1.3-0.4-2.4-1.2-3.1c-0.7-0.8-1.8-1.2-3.1-1.2c-1.8,0-3.3,0.5-4.4,1.6c-1.1,1-1.7,2.4-1.7,4v16.3L149.7,57.7L149.7,57.7z">
  </path>
  <path class="st1" d="M221.6,44.1c0-2.9-0.6-5.3-1.7-7.5c-1.1-2.1-2.7-3.8-4.6-4.9c-2-1.1-4.3-1.7-6.8-1.7c-2.6,0-5,0.6-7,1.8
		c-2.1,1.2-3.7,2.9-4.9,5c-1.2,2.1-1.7,4.6-1.7,7.5c0,2.8,0.6,5.2,1.8,7.3c1.2,2.1,2.9,3.8,5,5c2.2,1.2,4.6,1.8,7.4,1.8
		c3.2,0,6-0.8,8.2-2.4c1.6-1.2,2.8-2.7,3.6-4.5l-6.2-1.7c-0.4,0.8-1.1,1.5-1.9,2c-1,0.6-2.2,0.9-3.6,0.9c-2,0-3.7-0.6-5-1.9
		c-1.3-1.3-2.1-3-2.4-5h20V44.1L221.6,44.1z M201.8,41.1c0.4-1.7,1.2-3,2.4-3.9c1.2-1,2.5-1.5,4.1-1.5c1.6,0,2.9,0.5,3.9,1.4
		c1.1,0.9,1.8,2.3,2.1,4H201.8L201.8,41.1z">
  </path>
  <path class="st1" d="M236.3,58.4c-3.9,0-6.9-0.8-9.1-2.4c-1.5-1.1-2.5-2.6-3-4.4l6.4-1.7c0.2,0.8,0.7,1.5,1.4,2c1,0.6,2.2,1,3.8,1
		c1.3,0,2.4-0.2,3.1-0.7c0.7-0.5,1.1-1.2,1.1-2.1c0-0.6-0.2-1-0.5-1.3c-0.3-0.3-0.6-0.6-1-0.7c-0.4-0.2-1.1-0.4-2.3-0.8l-3.4-1.1
		c-1.8-0.6-3.4-1.2-4.6-1.8c-1.2-0.6-2.2-1.5-2.9-2.5c-0.7-1-1.1-2.3-1.1-3.9c0-2.5,0.9-4.4,2.8-5.8c1.8-1.5,4.4-2.2,7.8-2.2
		c3.3,0,5.9,0.8,7.9,2.5c1.6,1.2,2.6,2.9,3.2,4.9l-6.1,1.6c-0.2-1.1-0.7-1.9-1.5-2.5c-0.9-0.7-2.1-1-3.5-1c-1.2,0-2.1,0.2-2.7,0.7
		c-0.6,0.4-1,1-1,1.8c0,0.5,0.2,1,0.5,1.4c0.4,0.3,0.8,0.6,1.2,0.8c0.4,0.2,1.1,0.4,2.1,0.8l3.1,1.1c2.1,0.7,3.8,1.3,5,2
		c1.2,0.6,2.2,1.5,2.8,2.5c0.7,1,1,2.3,1,3.8c0,2.6-0.9,4.6-2.8,6C242.2,57.6,239.6,58.4,236.3,58.4">
  </path>
  <path class="st1" d="M255.4,56.5c2.1,1.2,4.6,1.8,7.5,1.8c3.6,0,6.6-1,8.9-3.1c1.5-1.3,2.5-2.8,3.2-4.6l-6.5-1.7
		c-0.4,0.9-0.9,1.6-1.6,2.2c-1.1,1-2.5,1.5-4.1,1.5c-2.1,0-3.9-0.8-5.2-2.3c-1.3-1.5-2-3.6-2-6.2c0-2.6,0.6-4.5,1.9-6
		c1.3-1.5,3-2.3,5.1-2.3c1.7,0,3.1,0.5,4.3,1.5c0.8,0.7,1.4,1.5,1.8,2.6l6.6-1.7c-0.3-1-0.7-1.9-1.3-2.7c-1.1-1.7-2.6-3-4.6-4
		c-1.9-0.9-4.2-1.4-6.7-1.4c-2.7,0-5.1,0.6-7.3,1.7c-2.1,1.1-3.8,2.8-5,4.9c-1.2,2.1-1.8,4.6-1.8,7.4c0,2.8,0.6,5.2,1.7,7.4
		C251.6,53.6,253.3,55.3,255.4,56.5">
  </path>
  <path class="st1" d="M299.2,30.9l-0.6,4c-0.8-1.5-2-2.7-3.7-3.6c-1.6-0.9-3.5-1.3-5.6-1.3c-2.4,0-4.5,0.6-6.4,1.8
		c-1.9,1.2-3.3,2.8-4.4,5c-1.1,2.1-1.6,4.5-1.6,7.3c0,2.7,0.5,5.3,1.6,7.5c1.1,2.1,2.6,3.8,4.5,5c1.9,1.2,4.1,1.8,6.5,1.8
		c1.8,0,3.5-0.4,4.9-1.1c1.4-0.7,2.6-1.7,3.4-2.9v3.2h6.9V30.9L299.2,30.9L299.2,30.9z M296,50.3c-1.3,1.6-2.9,2.4-5,2.4
		c-2.1,0-3.7-0.8-5-2.4c-1.3-1.6-1.9-3.7-1.9-6.2c0-2.6,0.6-4.5,1.9-6c1.3-1.6,3-2.4,5.1-2.4c2.1,0,3.7,0.8,4.9,2.3
		c1.3,1.5,1.9,3.6,1.9,6C297.9,46.5,297.2,48.7,296,50.3">
  </path>
  <path d="M316.5,20.3h-6.8v37.4h6.8V20.3z">
  </path>
  <path class="st1" d="M347.1,44.1c0-2.9-0.6-5.3-1.7-7.5c-1.1-2.1-2.7-3.8-4.6-4.9c-2-1.1-4.3-1.7-6.8-1.7c-2.6,0-5,0.6-7,1.8
		c-2.1,1.2-3.7,2.9-4.9,5c-1.2,2.1-1.7,4.6-1.7,7.5c0,2.8,0.6,5.2,1.8,7.3c1.2,2.1,2.9,3.8,5,5c2.2,1.2,4.6,1.8,7.4,1.8
		c3.2,0,6-0.8,8.2-2.4c1.6-1.2,2.8-2.7,3.6-4.5l-6.2-1.7c-0.4,0.8-1.1,1.5-1.9,2c-1,0.6-2.2,0.9-3.6,0.9c-2,0-3.7-0.6-5-1.9
		c-1.3-1.3-2.1-3-2.4-5h20V44.1L347.1,44.1z M327.4,41.1c0.4-1.7,1.2-3,2.4-3.9c1.2-1,2.5-1.5,4.1-1.5c1.6,0,2.9,0.5,3.9,1.4
		c1.1,0.9,1.8,2.3,2.1,4H327.4L327.4,41.1z">
  </path>
 </g>
</svg>
